<svg width="1200" height="216" viewBox="0 0 1200 216" fill="none" xmlns="http://www.w3.org/2000/svg">
<path d="M934.832 206H932.24L924.488 197.312V206H922.328V188.864H924.488V197.168L932.048 188.864H934.496L927.056 197.192L934.832 206ZM941.748 192.92C943.316 192.92 944.476 193.264 945.228 193.952C945.98 194.64 946.356 195.736 946.356 197.24V206H944.82L944.412 204.176H944.316C943.756 204.88 943.164 205.4 942.54 205.736C941.932 206.072 941.084 206.24 939.996 206.24C938.828 206.24 937.86 205.936 937.092 205.328C936.324 204.704 935.94 203.736 935.94 202.424C935.94 201.144 936.444 200.16 937.452 199.472C938.46 198.768 940.012 198.384 942.108 198.32L944.292 198.248V197.48C944.292 196.408 944.06 195.664 943.596 195.248C943.132 194.832 942.476 194.624 941.628 194.624C940.956 194.624 940.316 194.728 939.708 194.936C939.1 195.128 938.532 195.352 938.004 195.608L937.356 194.024C937.916 193.72 938.58 193.464 939.348 193.256C940.116 193.032 940.916 192.92 941.748 192.92ZM942.372 199.784C940.772 199.848 939.66 200.104 939.036 200.552C938.428 201 938.124 201.632 938.124 202.448C938.124 203.168 938.34 203.696 938.772 204.032C939.22 204.368 939.788 204.536 940.476 204.536C941.564 204.536 942.468 204.24 943.188 203.648C943.908 203.04 944.268 202.112 944.268 200.864V199.712L942.372 199.784ZM956.449 192.896C958.033 192.896 959.305 193.448 960.265 194.552C961.241 195.656 961.729 197.32 961.729 199.544C961.729 201.736 961.241 203.4 960.265 204.536C959.305 205.672 958.025 206.24 956.425 206.24C955.433 206.24 954.609 206.056 953.953 205.688C953.313 205.304 952.809 204.864 952.441 204.368H952.297C952.329 204.64 952.361 204.984 952.393 205.4C952.425 205.816 952.441 206.176 952.441 206.48V211.76H950.329V193.136H952.057L952.345 194.888H952.441C952.825 194.328 953.329 193.856 953.953 193.472C954.577 193.088 955.409 192.896 956.449 192.896ZM956.065 194.672C954.753 194.672 953.825 195.04 953.281 195.776C952.753 196.512 952.473 197.632 952.441 199.136V199.544C952.441 201.128 952.697 202.352 953.209 203.216C953.737 204.064 954.705 204.488 956.113 204.488C956.897 204.488 957.537 204.272 958.033 203.84C958.545 203.408 958.921 202.824 959.161 202.088C959.417 201.336 959.545 200.48 959.545 199.52C959.545 198.048 959.257 196.872 958.681 195.992C958.121 195.112 957.249 194.672 956.065 194.672ZM969.967 192.92C971.535 192.92 972.695 193.264 973.447 193.952C974.199 194.64 974.575 195.736 974.575 197.24V206H973.039L972.631 204.176H972.535C971.975 204.88 971.383 205.4 970.759 205.736C970.151 206.072 969.303 206.24 968.215 206.24C967.047 206.24 966.079 205.936 965.311 205.328C964.543 204.704 964.159 203.736 964.159 202.424C964.159 201.144 964.663 200.16 965.671 199.472C966.679 198.768 968.231 198.384 970.327 198.32L972.511 198.248V197.48C972.511 196.408 972.279 195.664 971.815 195.248C971.351 194.832 970.695 194.624 969.847 194.624C969.175 194.624 968.535 194.728 967.927 194.936C967.319 195.128 966.751 195.352 966.223 195.608L965.575 194.024C966.135 193.72 966.799 193.464 967.567 193.256C968.335 193.032 969.135 192.92 969.967 192.92ZM970.591 199.784C968.991 199.848 967.879 200.104 967.255 200.552C966.647 201 966.343 201.632 966.343 202.448C966.343 203.168 966.559 203.696 966.991 204.032C967.439 204.368 968.007 204.536 968.695 204.536C969.783 204.536 970.687 204.24 971.407 203.648C972.127 203.04 972.487 202.112 972.487 200.864V199.712L970.591 199.784ZM986.396 193.136V194.912H980.66V206H978.548V193.136H986.396ZM993.803 192.92C995.371 192.92 996.531 193.264 997.283 193.952C998.035 194.64 998.411 195.736 998.411 197.24V206H996.875L996.467 204.176H996.371C995.811 204.88 995.219 205.4 994.595 205.736C993.987 206.072 993.139 206.24 992.051 206.24C990.883 206.24 989.915 205.936 989.147 205.328C988.379 204.704 987.995 203.736 987.995 202.424C987.995 201.144 988.499 200.16 989.507 199.472C990.515 198.768 992.067 198.384 994.163 198.32L996.347 198.248V197.48C996.347 196.408 996.115 195.664 995.651 195.248C995.187 194.832 994.531 194.624 993.683 194.624C993.011 194.624 992.371 194.728 991.763 194.936C991.155 195.128 990.587 195.352 990.059 195.608L989.411 194.024C989.971 193.72 990.635 193.464 991.403 193.256C992.171 193.032 992.971 192.92 993.803 192.92ZM994.427 199.784C992.827 199.848 991.715 200.104 991.091 200.552C990.483 201 990.179 201.632 990.179 202.448C990.179 203.168 990.395 203.696 990.827 204.032C991.275 204.368 991.843 204.536 992.531 204.536C993.619 204.536 994.523 204.24 995.243 203.648C995.963 203.04 996.323 202.112 996.323 200.864V199.712L994.427 199.784ZM1004.5 193.136V198.488H1011.48V193.136H1013.59V206H1011.48V200.264H1004.5V206H1002.38V193.136H1004.5ZM1027.22 193.136V204.224H1029.09V210.464H1027.05V206H1018.1V210.464H1016.08V204.224H1017.11C1018.22 202.704 1019.04 200.976 1019.59 199.04C1020.15 197.088 1020.43 195.12 1020.45 193.136H1027.22ZM1022.32 194.792C1022.26 195.88 1022.09 197.008 1021.82 198.176C1021.55 199.328 1021.19 200.432 1020.76 201.488C1020.35 202.544 1019.86 203.456 1019.3 204.224H1025.18V194.792H1022.32ZM1036.48 192.92C1038.05 192.92 1039.21 193.264 1039.96 193.952C1040.71 194.64 1041.09 195.736 1041.09 197.24V206H1039.55L1039.15 204.176H1039.05C1038.49 204.88 1037.9 205.4 1037.27 205.736C1036.67 206.072 1035.82 206.24 1034.73 206.24C1033.56 206.24 1032.59 205.936 1031.83 205.328C1031.06 204.704 1030.67 203.736 1030.67 202.424C1030.67 201.144 1031.18 200.16 1032.19 199.472C1033.19 198.768 1034.75 198.384 1036.84 198.32L1039.03 198.248V197.48C1039.03 196.408 1038.79 195.664 1038.33 195.248C1037.87 194.832 1037.21 194.624 1036.36 194.624C1035.69 194.624 1035.05 194.728 1034.44 194.936C1033.83 195.128 1033.27 195.352 1032.74 195.608L1032.09 194.024C1032.65 193.72 1033.31 193.464 1034.08 193.256C1034.85 193.032 1035.65 192.92 1036.48 192.92ZM1037.11 199.784C1035.51 199.848 1034.39 200.104 1033.77 200.552C1033.16 201 1032.86 201.632 1032.86 202.448C1032.86 203.168 1033.07 203.696 1033.51 204.032C1033.95 204.368 1034.52 204.536 1035.21 204.536C1036.3 204.536 1037.2 204.24 1037.92 203.648C1038.64 203.04 1039 202.112 1039 200.864V199.712L1037.11 199.784Z" fill="white"/>
<path d="M140.672 190.52C138.832 190.52 137.384 191.136 136.328 192.368C135.272 193.6 134.744 195.288 134.744 197.432C134.744 199.56 135.232 201.248 136.208 202.496C137.2 203.728 138.68 204.344 140.648 204.344C141.4 204.344 142.112 204.28 142.784 204.152C143.456 204.024 144.112 203.864 144.752 203.672V205.544C144.112 205.784 143.448 205.96 142.76 206.072C142.088 206.184 141.28 206.24 140.336 206.24C138.592 206.24 137.136 205.88 135.968 205.16C134.8 204.44 133.92 203.416 133.328 202.088C132.752 200.76 132.464 199.2 132.464 197.408C132.464 195.68 132.776 194.16 133.4 192.848C134.04 191.52 134.976 190.488 136.208 189.752C137.44 189 138.936 188.624 140.696 188.624C142.504 188.624 144.08 188.96 145.424 189.632L144.56 191.456C144.032 191.216 143.44 191 142.784 190.808C142.144 190.616 141.44 190.52 140.672 190.52ZM157.084 194.912H152.884V206H150.796V194.912H146.644V193.136H157.084V194.912ZM170.568 199.544C170.568 201.672 170.024 203.32 168.936 204.488C167.864 205.656 166.408 206.24 164.568 206.24C163.432 206.24 162.416 205.984 161.52 205.472C160.64 204.944 159.944 204.184 159.432 203.192C158.92 202.184 158.664 200.968 158.664 199.544C158.664 197.416 159.2 195.776 160.272 194.624C161.344 193.472 162.8 192.896 164.64 192.896C165.808 192.896 166.832 193.16 167.712 193.688C168.608 194.2 169.304 194.952 169.8 195.944C170.312 196.92 170.568 198.12 170.568 199.544ZM160.848 199.544C160.848 201.064 161.144 202.272 161.736 203.168C162.344 204.048 163.304 204.488 164.616 204.488C165.912 204.488 166.864 204.048 167.472 203.168C168.08 202.272 168.384 201.064 168.384 199.544C168.384 198.024 168.08 196.832 167.472 195.968C166.864 195.104 165.904 194.672 164.592 194.672C163.28 194.672 162.328 195.104 161.736 195.968C161.144 196.832 160.848 198.024 160.848 199.544ZM181.523 193.136H183.827L178.331 199.328L184.283 206H181.835L176.027 199.472V206H173.915V193.136H176.027V199.376L181.523 193.136ZM194.466 193.136V194.912H188.73V206H186.618V193.136H194.466ZM207.951 199.544C207.951 201.672 207.407 203.32 206.319 204.488C205.247 205.656 203.791 206.24 201.951 206.24C200.815 206.24 199.799 205.984 198.903 205.472C198.023 204.944 197.327 204.184 196.815 203.192C196.303 202.184 196.047 200.968 196.047 199.544C196.047 197.416 196.583 195.776 197.655 194.624C198.727 193.472 200.183 192.896 202.023 192.896C203.191 192.896 204.215 193.16 205.095 193.688C205.991 194.2 206.687 194.952 207.183 195.944C207.695 196.92 207.951 198.12 207.951 199.544ZM198.231 199.544C198.231 201.064 198.527 202.272 199.119 203.168C199.727 204.048 200.687 204.488 201.999 204.488C203.295 204.488 204.247 204.048 204.855 203.168C205.463 202.272 205.767 201.064 205.767 199.544C205.767 198.024 205.463 196.832 204.855 195.968C204.247 195.104 203.287 194.672 201.975 194.672C200.663 194.672 199.711 195.104 199.119 195.968C198.527 196.832 198.231 198.024 198.231 199.544ZM221.09 206H218.954V194.888H215.162C214.954 197.592 214.666 199.776 214.298 201.44C213.93 203.088 213.442 204.288 212.834 205.04C212.226 205.792 211.458 206.168 210.53 206.168C210.322 206.168 210.114 206.152 209.906 206.12C209.714 206.104 209.554 206.064 209.426 206V204.416C209.522 204.448 209.626 204.472 209.738 204.488C209.85 204.504 209.962 204.512 210.074 204.512C210.938 204.512 211.626 203.592 212.138 201.752C212.666 199.912 213.066 197.04 213.338 193.136H221.09V206ZM231.101 198.416C234.445 198.416 236.117 199.632 236.117 202.064C236.117 203.264 235.709 204.224 234.893 204.944C234.077 205.648 232.781 206 231.005 206H225.173V193.136H227.285V198.416H231.101ZM234.005 202.184C234.005 201.4 233.725 200.872 233.165 200.6C232.621 200.312 231.853 200.168 230.861 200.168H227.285V204.296H230.909C231.805 204.296 232.541 204.136 233.117 203.816C233.709 203.496 234.005 202.952 234.005 202.184ZM253.223 193.136V206H251.327V197.792C251.327 197.456 251.335 197.104 251.351 196.736C251.383 196.368 251.415 196.008 251.447 195.656H251.375L247.175 206H245.399L241.319 195.656H241.247C241.295 196.376 241.319 197.112 241.319 197.864V206H239.423V193.136H242.231L246.287 203.48L250.415 193.136H253.223Z" fill="white"/>
<path d="M471.888 206L466.248 190.976H466.152C466.2 191.472 466.24 192.144 466.272 192.992C466.304 193.824 466.32 194.696 466.32 195.608V206H464.328V188.864H467.52L472.8 202.904H472.896L478.272 188.864H481.44V206H479.304V195.464C479.304 194.632 479.32 193.808 479.352 192.992C479.4 192.176 479.44 191.512 479.472 191H479.376L473.664 206H471.888ZM487.805 200.984C487.805 201.176 487.797 201.464 487.781 201.848C487.765 202.232 487.741 202.616 487.709 203C487.693 203.384 487.677 203.688 487.661 203.912L494.549 193.136H497.141V206H495.173V198.416C495.173 198.16 495.173 197.824 495.173 197.408C495.189 196.992 495.205 196.584 495.221 196.184C495.237 195.768 495.253 195.456 495.269 195.248L488.429 206H485.813V193.136H487.805V200.984ZM503.347 193.136V198.488H510.331V193.136H512.443V206H510.331V200.264H503.347V206H501.235V193.136H503.347ZM521.677 206.24C520.541 206.24 519.525 206.008 518.629 205.544C517.749 205.08 517.053 204.36 516.541 203.384C516.045 202.408 515.797 201.16 515.797 199.64C515.797 198.056 516.061 196.768 516.589 195.776C517.117 194.784 517.829 194.056 518.725 193.592C519.637 193.128 520.669 192.896 521.821 192.896C522.477 192.896 523.109 192.968 523.717 193.112C524.325 193.24 524.821 193.4 525.205 193.592L524.557 195.344C524.173 195.2 523.725 195.064 523.213 194.936C522.701 194.808 522.221 194.744 521.773 194.744C519.245 194.744 517.981 196.368 517.981 199.616C517.981 201.168 518.285 202.36 518.893 203.192C519.517 204.008 520.437 204.416 521.653 204.416C522.357 204.416 522.973 204.344 523.501 204.2C524.045 204.056 524.541 203.88 524.989 203.672V205.544C524.557 205.768 524.077 205.936 523.549 206.048C523.037 206.176 522.413 206.24 521.677 206.24ZM535.656 193.136H537.96L532.464 199.328L538.416 206H535.968L530.16 199.472V206H528.048V193.136H530.16V199.376L535.656 193.136Z" fill="white"/>
<path d="M608.888 206L603.248 190.976H603.152C603.2 191.472 603.24 192.144 603.272 192.992C603.304 193.824 603.32 194.696 603.32 195.608V206H601.328V188.864H604.52L609.8 202.904H609.896L615.272 188.864H618.44V206H616.304V195.464C616.304 194.632 616.32 193.808 616.352 192.992C616.4 192.176 616.44 191.512 616.472 191H616.376L610.664 206H608.888ZM624.805 200.984C624.805 201.176 624.797 201.464 624.781 201.848C624.765 202.232 624.741 202.616 624.709 203C624.693 203.384 624.677 203.688 624.661 203.912L631.549 193.136H634.141V206H632.173V198.416C632.173 198.16 632.173 197.824 632.173 197.408C632.189 196.992 632.205 196.584 632.221 196.184C632.237 195.768 632.253 195.456 632.269 195.248L625.429 206H622.813V193.136H624.805V200.984ZM648.027 206H645.891V194.888H642.099C641.891 197.592 641.603 199.776 641.235 201.44C640.867 203.088 640.379 204.288 639.771 205.04C639.163 205.792 638.395 206.168 637.467 206.168C637.259 206.168 637.051 206.152 636.843 206.12C636.651 206.104 636.491 206.064 636.363 206V204.416C636.459 204.448 636.563 204.472 636.675 204.488C636.787 204.504 636.899 204.512 637.011 204.512C637.875 204.512 638.563 203.592 639.075 201.752C639.603 199.912 640.003 197.04 640.275 193.136H648.027V206ZM656.982 192.92C658.55 192.92 659.71 193.264 660.462 193.952C661.214 194.64 661.59 195.736 661.59 197.24V206H660.054L659.646 204.176H659.55C658.99 204.88 658.398 205.4 657.774 205.736C657.166 206.072 656.318 206.24 655.23 206.24C654.062 206.24 653.094 205.936 652.326 205.328C651.558 204.704 651.174 203.736 651.174 202.424C651.174 201.144 651.678 200.16 652.686 199.472C653.694 198.768 655.246 198.384 657.342 198.32L659.526 198.248V197.48C659.526 196.408 659.294 195.664 658.83 195.248C658.366 194.832 657.71 194.624 656.862 194.624C656.19 194.624 655.55 194.728 654.942 194.936C654.334 195.128 653.766 195.352 653.238 195.608L652.59 194.024C653.15 193.72 653.814 193.464 654.582 193.256C655.35 193.032 656.15 192.92 656.982 192.92ZM657.606 199.784C656.006 199.848 654.894 200.104 654.27 200.552C653.662 201 653.358 201.632 653.358 202.448C653.358 203.168 653.574 203.696 654.006 204.032C654.454 204.368 655.022 204.536 655.71 204.536C656.798 204.536 657.702 204.24 658.422 203.648C659.142 203.04 659.502 202.112 659.502 200.864V199.712L657.606 199.784ZM667.675 193.136V198.488H674.659V193.136H676.771V206H674.659V200.264H667.675V206H665.563V193.136H667.675Z" fill="white"/>
<path d="M753.832 206H751.24L743.488 197.312V206H741.328V188.864H743.488V197.168L751.048 188.864H753.496L746.056 197.192L753.832 206ZM760.748 192.92C762.316 192.92 763.476 193.264 764.228 193.952C764.98 194.64 765.356 195.736 765.356 197.24V206H763.82L763.412 204.176H763.316C762.756 204.88 762.164 205.4 761.54 205.736C760.932 206.072 760.084 206.24 758.996 206.24C757.828 206.24 756.86 205.936 756.092 205.328C755.324 204.704 754.94 203.736 754.94 202.424C754.94 201.144 755.444 200.16 756.452 199.472C757.46 198.768 759.012 198.384 761.108 198.32L763.292 198.248V197.48C763.292 196.408 763.06 195.664 762.596 195.248C762.132 194.832 761.476 194.624 760.628 194.624C759.956 194.624 759.316 194.728 758.708 194.936C758.1 195.128 757.532 195.352 757.004 195.608L756.356 194.024C756.916 193.72 757.58 193.464 758.348 193.256C759.116 193.032 759.916 192.92 760.748 192.92ZM761.372 199.784C759.772 199.848 758.66 200.104 758.036 200.552C757.428 201 757.124 201.632 757.124 202.448C757.124 203.168 757.34 203.696 757.772 204.032C758.22 204.368 758.788 204.536 759.476 204.536C760.564 204.536 761.468 204.24 762.188 203.648C762.908 203.04 763.268 202.112 763.268 200.864V199.712L761.372 199.784ZM778.881 193.136V204.224H780.753V210.464H778.713V206H769.761V210.464H767.745V204.224H768.777C769.881 202.704 770.705 200.976 771.249 199.04C771.809 197.088 772.097 195.12 772.113 193.136H778.881ZM773.985 194.792C773.921 195.88 773.753 197.008 773.481 198.176C773.209 199.328 772.857 200.432 772.425 201.488C772.009 202.544 771.521 203.456 770.961 204.224H776.841V194.792H773.985ZM788.146 192.92C789.714 192.92 790.874 193.264 791.626 193.952C792.378 194.64 792.754 195.736 792.754 197.24V206H791.218L790.81 204.176H790.714C790.154 204.88 789.562 205.4 788.938 205.736C788.33 206.072 787.482 206.24 786.394 206.24C785.226 206.24 784.258 205.936 783.49 205.328C782.722 204.704 782.338 203.736 782.338 202.424C782.338 201.144 782.842 200.16 783.85 199.472C784.858 198.768 786.41 198.384 788.506 198.32L790.69 198.248V197.48C790.69 196.408 790.458 195.664 789.994 195.248C789.53 194.832 788.874 194.624 788.026 194.624C787.354 194.624 786.714 194.728 786.106 194.936C785.498 195.128 784.93 195.352 784.402 195.608L783.754 194.024C784.314 193.72 784.978 193.464 785.746 193.256C786.514 193.032 787.314 192.92 788.146 192.92ZM788.77 199.784C787.17 199.848 786.058 200.104 785.434 200.552C784.826 201 784.522 201.632 784.522 202.448C784.522 203.168 784.738 203.696 785.17 204.032C785.618 204.368 786.186 204.536 786.874 204.536C787.962 204.536 788.866 204.24 789.586 203.648C790.306 203.04 790.666 202.112 790.666 200.864V199.712L788.77 199.784ZM810.528 193.136V206H808.632V197.792C808.632 197.456 808.64 197.104 808.656 196.736C808.688 196.368 808.72 196.008 808.752 195.656H808.68L804.48 206H802.704L798.624 195.656H798.552C798.6 196.376 798.624 197.112 798.624 197.864V206H796.728V193.136H799.536L803.592 203.48L807.72 193.136H810.528ZM830.066 193.136L824.762 199.376L830.522 206H828.122L822.554 199.472V206H820.586V199.472L815.018 206H812.618L818.378 199.376L813.074 193.136H815.378L820.586 199.376V193.136H822.554V199.376L827.786 193.136H830.066ZM837.506 192.92C839.074 192.92 840.234 193.264 840.986 193.952C841.738 194.64 842.114 195.736 842.114 197.24V206H840.578L840.17 204.176H840.074C839.514 204.88 838.922 205.4 838.298 205.736C837.69 206.072 836.842 206.24 835.754 206.24C834.586 206.24 833.618 205.936 832.85 205.328C832.082 204.704 831.698 203.736 831.698 202.424C831.698 201.144 832.202 200.16 833.21 199.472C834.218 198.768 835.77 198.384 837.866 198.32L840.05 198.248V197.48C840.05 196.408 839.818 195.664 839.354 195.248C838.89 194.832 838.234 194.624 837.386 194.624C836.714 194.624 836.074 194.728 835.466 194.936C834.858 195.128 834.29 195.352 833.762 195.608L833.114 194.024C833.674 193.72 834.338 193.464 835.106 193.256C835.874 193.032 836.674 192.92 837.506 192.92ZM838.13 199.784C836.53 199.848 835.418 200.104 834.794 200.552C834.186 201 833.882 201.632 833.882 202.448C833.882 203.168 834.098 203.696 834.53 204.032C834.978 204.368 835.546 204.536 836.234 204.536C837.322 204.536 838.226 204.24 838.946 203.648C839.666 203.04 840.026 202.112 840.026 200.864V199.712L838.13 199.784ZM856.503 187.808C856.391 189.008 855.983 189.92 855.279 190.544C854.591 191.152 853.487 191.456 851.967 191.456C850.399 191.456 849.287 191.152 848.631 190.544C847.991 189.936 847.631 189.024 847.551 187.808H849.519C849.599 188.672 849.823 189.256 850.191 189.56C850.575 189.848 851.183 189.992 852.015 189.992C852.751 189.992 853.327 189.84 853.743 189.536C854.175 189.216 854.431 188.64 854.511 187.808H856.503ZM848.079 200.984C848.079 201.176 848.071 201.464 848.055 201.848C848.039 202.232 848.015 202.616 847.983 203C847.967 203.384 847.951 203.688 847.935 203.912L854.823 193.136H857.415V206H855.447V198.416C855.447 198.16 855.447 197.824 855.447 197.408C855.463 196.992 855.479 196.584 855.495 196.184C855.511 195.768 855.527 195.456 855.543 195.248L848.703 206H846.087V193.136H848.079V200.984Z" fill="white"/>
<path d="M-44.328 190.52C-46.168 190.52 -47.616 191.136 -48.672 192.368C-49.728 193.6 -50.256 195.288 -50.256 197.432C-50.256 199.56 -49.768 201.248 -48.792 202.496C-47.8 203.728 -46.32 204.344 -44.352 204.344C-43.6 204.344 -42.888 204.28 -42.216 204.152C-41.544 204.024 -40.888 203.864 -40.248 203.672V205.544C-40.888 205.784 -41.552 205.96 -42.24 206.072C-42.912 206.184 -43.72 206.24 -44.664 206.24C-46.408 206.24 -47.864 205.88 -49.032 205.16C-50.2 204.44 -51.08 203.416 -51.672 202.088C-52.248 200.76 -52.536 199.2 -52.536 197.408C-52.536 195.68 -52.224 194.16 -51.6 192.848C-50.96 191.52 -50.024 190.488 -48.792 189.752C-47.56 189 -46.064 188.624 -44.304 188.624C-42.496 188.624 -40.92 188.96 -39.576 189.632L-40.44 191.456C-40.968 191.216 -41.56 191 -42.216 190.808C-42.856 190.616 -43.56 190.52 -44.328 190.52ZM-27.9159 194.912H-32.1159V206H-34.2039V194.912H-38.3559V193.136H-27.9159V194.912ZM-14.4323 199.544C-14.4323 201.672 -14.9762 203.32 -16.0642 204.488C-17.1362 205.656 -18.5922 206.24 -20.4322 206.24C-21.5682 206.24 -22.5842 205.984 -23.4802 205.472C-24.3602 204.944 -25.0562 204.184 -25.5682 203.192C-26.0802 202.184 -26.3362 200.968 -26.3362 199.544C-26.3362 197.416 -25.8002 195.776 -24.7282 194.624C-23.6562 193.472 -22.2002 192.896 -20.3602 192.896C-19.1922 192.896 -18.1682 193.16 -17.2882 193.688C-16.3922 194.2 -15.6962 194.952 -15.2002 195.944C-14.6882 196.92 -14.4323 198.12 -14.4323 199.544ZM-24.1522 199.544C-24.1522 201.064 -23.8562 202.272 -23.2642 203.168C-22.6562 204.048 -21.6962 204.488 -20.3842 204.488C-19.0882 204.488 -18.1362 204.048 -17.5282 203.168C-16.9202 202.272 -16.6162 201.064 -16.6162 199.544C-16.6162 198.024 -16.9202 196.832 -17.5282 195.968C-18.1362 195.104 -19.0962 194.672 -20.4082 194.672C-21.7202 194.672 -22.6722 195.104 -23.2642 195.968C-23.8562 196.832 -24.1522 198.024 -24.1522 199.544ZM-3.477 193.136H-1.173L-6.669 199.328L-0.717 206H-3.165L-8.973 199.472V206H-11.085V193.136H-8.973V199.376L-3.477 193.136ZM9.46613 193.136V194.912H3.73013V206H1.61813V193.136H9.46613ZM22.9506 199.544C22.9506 201.672 22.4066 203.32 21.3186 204.488C20.2466 205.656 18.7906 206.24 16.9506 206.24C15.8146 206.24 14.7986 205.984 13.9026 205.472C13.0226 204.944 12.3266 204.184 11.8146 203.192C11.3026 202.184 11.0466 200.968 11.0466 199.544C11.0466 197.416 11.5826 195.776 12.6546 194.624C13.7266 193.472 15.1826 192.896 17.0226 192.896C18.1906 192.896 19.2146 193.16 20.0946 193.688C20.9906 194.2 21.6866 194.952 22.1826 195.944C22.6946 196.92 22.9506 198.12 22.9506 199.544ZM13.2306 199.544C13.2306 201.064 13.5266 202.272 14.1186 203.168C14.7266 204.048 15.6866 204.488 16.9986 204.488C18.2946 204.488 19.2466 204.048 19.8546 203.168C20.4626 202.272 20.7666 201.064 20.7666 199.544C20.7666 198.024 20.4626 196.832 19.8546 195.968C19.2466 195.104 18.2866 194.672 16.9746 194.672C15.6626 194.672 14.7106 195.104 14.1186 195.968C13.5266 196.832 13.2306 198.024 13.2306 199.544ZM36.0898 206H33.9538V194.888H30.1618C29.9538 197.592 29.6658 199.776 29.2978 201.44C28.9298 203.088 28.4418 204.288 27.8338 205.04C27.2258 205.792 26.4578 206.168 25.5298 206.168C25.3218 206.168 25.1138 206.152 24.9058 206.12C24.7138 206.104 24.5538 206.064 24.4258 206V204.416C24.5218 204.448 24.6258 204.472 24.7378 204.488C24.8498 204.504 24.9618 204.512 25.0738 204.512C25.9378 204.512 26.6258 203.592 27.1378 201.752C27.6658 199.912 28.0658 197.04 28.3378 193.136H36.0898V206ZM46.1008 198.416C49.4448 198.416 51.1168 199.632 51.1168 202.064C51.1168 203.264 50.7088 204.224 49.8928 204.944C49.0768 205.648 47.7808 206 46.0048 206H40.1728V193.136H42.2848V198.416H46.1008ZM49.0048 202.184C49.0048 201.4 48.7248 200.872 48.1648 200.6C47.6208 200.312 46.8528 200.168 45.8608 200.168H42.2848V204.296H45.9088C46.8048 204.296 47.5408 204.136 48.1168 203.816C48.7088 203.496 49.0048 202.952 49.0048 202.184ZM68.2228 193.136V206H66.3268V197.792C66.3268 197.456 66.3348 197.104 66.3508 196.736C66.3828 196.368 66.4148 196.008 66.4468 195.656H66.3748L62.1748 206H60.3988L56.3188 195.656H56.2468C56.2948 196.376 56.3188 197.112 56.3188 197.864V206H54.4228V193.136H57.2308L61.2868 203.48L65.4148 193.136H68.2228Z" fill="white"/>
<path d="M328 188.864V190.784H320.488V206H318.328V188.864H328ZM340.122 199.544C340.122 201.672 339.578 203.32 338.49 204.488C337.418 205.656 335.962 206.24 334.122 206.24C332.986 206.24 331.97 205.984 331.074 205.472C330.194 204.944 329.498 204.184 328.986 203.192C328.474 202.184 328.218 200.968 328.218 199.544C328.218 197.416 328.754 195.776 329.826 194.624C330.898 193.472 332.354 192.896 334.194 192.896C335.362 192.896 336.386 193.16 337.266 193.688C338.162 194.2 338.858 194.952 339.354 195.944C339.866 196.92 340.122 198.12 340.122 199.544ZM330.402 199.544C330.402 201.064 330.698 202.272 331.29 203.168C331.898 204.048 332.858 204.488 334.17 204.488C335.466 204.488 336.418 204.048 337.026 203.168C337.634 202.272 337.938 201.064 337.938 199.544C337.938 198.024 337.634 196.832 337.026 195.968C336.418 195.104 335.458 194.672 334.146 194.672C332.834 194.672 331.882 195.104 331.29 195.968C330.698 196.832 330.402 198.024 330.402 199.544ZM357.27 193.136V206H355.374V197.792C355.374 197.456 355.382 197.104 355.398 196.736C355.43 196.368 355.462 196.008 355.494 195.656H355.422L351.222 206H349.446L345.366 195.656H345.294C345.342 196.376 345.366 197.112 345.366 197.864V206H343.47V193.136H346.278L350.334 203.48L354.462 193.136H357.27ZM366.344 192.896C367.448 192.896 368.392 193.136 369.176 193.616C369.976 194.096 370.584 194.776 371 195.656C371.432 196.52 371.648 197.536 371.648 198.704V199.976H362.84C362.872 201.432 363.24 202.544 363.944 203.312C364.664 204.064 365.664 204.44 366.944 204.44C367.76 204.44 368.48 204.368 369.104 204.224C369.744 204.064 370.4 203.84 371.072 203.552V205.4C370.416 205.688 369.768 205.896 369.128 206.024C368.488 206.168 367.728 206.24 366.848 206.24C365.632 206.24 364.552 205.992 363.608 205.496C362.68 205 361.952 204.264 361.424 203.288C360.912 202.296 360.656 201.088 360.656 199.664C360.656 198.256 360.888 197.048 361.352 196.04C361.832 195.032 362.496 194.256 363.344 193.712C364.208 193.168 365.208 192.896 366.344 192.896ZM366.32 194.624C365.312 194.624 364.512 194.952 363.92 195.608C363.344 196.248 363 197.144 362.888 198.296H369.44C369.424 197.208 369.168 196.328 368.672 195.656C368.176 194.968 367.392 194.624 366.32 194.624ZM384.715 206H382.579V194.888H378.787C378.579 197.592 378.291 199.776 377.923 201.44C377.555 203.088 377.067 204.288 376.459 205.04C375.851 205.792 375.083 206.168 374.155 206.168C373.947 206.168 373.739 206.152 373.531 206.12C373.339 206.104 373.179 206.064 373.051 206V204.416C373.147 204.448 373.251 204.472 373.363 204.488C373.475 204.504 373.587 204.512 373.699 204.512C374.563 204.512 375.251 203.592 375.763 201.752C376.291 199.912 376.691 197.04 376.963 193.136H384.715V206ZM394.726 198.416C398.07 198.416 399.742 199.632 399.742 202.064C399.742 203.264 399.334 204.224 398.518 204.944C397.702 205.648 396.406 206 394.63 206H388.798V193.136H390.91V198.416H394.726ZM397.63 202.184C397.63 201.4 397.35 200.872 396.79 200.6C396.246 200.312 395.478 200.168 394.486 200.168H390.91V204.296H394.534C395.43 204.296 396.166 204.136 396.742 203.816C397.334 203.496 397.63 202.952 397.63 202.184Z" fill="white"/>
<path d="M461.008 70H450L433.424 46.832V70H423.76V24.304H433.424V46.448L449.808 24.304H460.112L443.472 46.256L461.008 70ZM465.992 70V35.056H475.528V48.56H480.136C485.469 48.56 489.416 49.4133 491.976 51.12C494.536 52.8267 495.816 55.408 495.816 58.864C495.816 62.2347 494.621 64.944 492.232 66.992C489.843 68.9973 485.917 70 480.456 70H465.992ZM500.872 70V35.056H510.408V70H500.872ZM479.944 63.408C481.821 63.408 483.336 63.0667 484.488 62.384C485.683 61.7013 486.28 60.5707 486.28 58.992C486.28 56.432 484.125 55.152 479.816 55.152H475.528V63.408H479.944ZM539.823 34.416C543.748 34.416 546.927 35.952 549.359 39.024C551.791 42.0533 553.007 46.5333 553.007 52.464C553.007 58.3947 551.748 62.9173 549.231 66.032C546.714 69.104 543.492 70.64 539.567 70.64C537.05 70.64 535.044 70.192 533.551 69.296C532.058 68.3573 530.842 67.312 529.903 66.16H529.391C529.732 67.952 529.903 69.6587 529.903 71.28V85.36H520.367V35.056H528.111L529.455 39.6H529.903C530.842 38.192 532.1 36.976 533.679 35.952C535.258 34.928 537.306 34.416 539.823 34.416ZM536.751 42.032C534.276 42.032 532.527 42.8 531.503 44.336C530.522 45.872 529.988 48.2187 529.903 51.376V52.4C529.903 55.7707 530.394 58.3733 531.375 60.208C532.399 62 534.234 62.896 536.879 62.896C539.055 62.896 540.655 62 541.679 60.208C542.746 58.3733 543.279 55.7493 543.279 52.336C543.279 45.4667 541.103 42.032 536.751 42.032ZM584.995 35.056V42.224H570.403V70H560.867V35.056H584.995ZM591.43 70V35.056H600.966V48.56H605.574C610.907 48.56 614.854 49.4133 617.414 51.12C619.974 52.8267 621.254 55.408 621.254 58.864C621.254 62.2347 620.059 64.944 617.67 66.992C615.28 68.9973 611.355 70 605.894 70H591.43ZM626.31 70V35.056H635.846V70H626.31ZM605.382 63.408C607.259 63.408 608.774 63.0667 609.926 62.384C611.12 61.7013 611.718 60.5707 611.718 58.992C611.718 56.432 609.563 55.152 605.253 55.152H600.966V63.408H605.382ZM658.541 34.416C661.058 34.416 663.405 34.7573 665.581 35.44C667.799 36.08 669.57 37.0827 670.893 38.448C672.258 39.8133 672.941 41.5627 672.941 43.696C672.941 45.7867 672.301 47.4507 671.021 48.688C669.783 49.9253 668.098 50.8213 665.965 51.376V51.696C667.458 52.0373 668.802 52.528 669.997 53.168C671.191 53.7653 672.13 54.5973 672.812 55.664C673.538 56.688 673.901 58.0747 673.901 59.824C673.901 61.744 673.282 63.536 672.045 65.2C670.85 66.8213 668.973 68.144 666.413 69.168C663.895 70.1493 660.653 70.64 656.685 70.64C650.882 70.64 646.402 69.9147 643.245 68.464V60.592C644.695 61.2747 646.466 61.8933 648.557 62.448C650.69 63.0027 652.951 63.28 655.341 63.28C657.943 63.28 660.141 62.9813 661.933 62.384C663.725 61.7867 664.621 60.7413 664.621 59.248C664.621 56.4747 661.314 55.088 654.701 55.088H650.989V48.496H654.509C657.666 48.496 660.098 48.24 661.805 47.728C663.554 47.216 664.429 46.256 664.429 44.848C664.429 43.7387 663.874 42.9067 662.765 42.352C661.655 41.7547 659.842 41.456 657.325 41.456C655.661 41.456 653.847 41.648 651.885 42.032C649.922 42.416 648.066 42.9707 646.317 43.696L643.501 37.04C645.506 36.272 647.703 35.6533 650.093 35.184C652.482 34.672 655.298 34.416 658.541 34.416ZM695.513 70.64C690.307 70.64 686.275 69.2107 683.417 66.352C680.601 63.4507 679.193 58.9067 679.193 52.72C679.193 48.4533 679.918 44.976 681.369 42.288C682.819 39.6 684.825 37.616 687.385 36.336C689.987 35.056 692.974 34.416 696.345 34.416C698.734 34.416 700.803 34.6507 702.553 35.12C704.345 35.5893 705.902 36.144 707.225 36.784L704.409 44.144C702.915 43.5467 701.507 43.056 700.185 42.672C698.905 42.288 697.625 42.096 696.345 42.096C691.395 42.096 688.921 45.616 688.921 52.656C688.921 56.1547 689.561 58.736 690.841 60.4C692.163 62.064 693.998 62.896 696.345 62.896C698.35 62.896 700.121 62.64 701.657 62.128C703.193 61.5733 704.686 60.8267 706.137 59.888V68.016C704.686 68.9547 703.15 69.616 701.529 70C699.95 70.4267 697.945 70.64 695.513 70.64ZM743.108 42.224H731.652V70H722.116V42.224H710.66V35.056H743.108V42.224ZM763.891 34.352C768.584 34.352 772.168 35.376 774.643 37.424C777.16 39.4293 778.419 42.5227 778.419 46.704V70H771.763L769.907 65.264H769.651C768.157 67.1413 766.579 68.5067 764.915 69.36C763.251 70.2133 760.968 70.64 758.067 70.64C754.952 70.64 752.371 69.744 750.323 67.952C748.275 66.1173 747.251 63.3227 747.251 59.568C747.251 55.856 748.552 53.1253 751.155 51.376C753.757 49.584 757.661 48.6027 762.867 48.432L768.947 48.24V46.704C768.947 44.8693 768.456 43.5253 767.475 42.672C766.536 41.8187 765.213 41.392 763.507 41.392C761.8 41.392 760.136 41.648 758.515 42.16C756.893 42.6293 755.272 43.2267 753.651 43.952L750.515 37.488C752.392 36.5067 754.461 35.7387 756.723 35.184C759.027 34.6293 761.416 34.352 763.891 34.352ZM765.235 53.936C762.163 54.0213 760.029 54.576 758.835 55.6C757.64 56.624 757.043 57.968 757.043 59.632C757.043 61.0827 757.469 62.128 758.323 62.768C759.176 63.3653 760.285 63.664 761.651 63.664C763.699 63.664 765.427 63.0667 766.835 61.872C768.243 60.6347 768.947 58.9067 768.947 56.688V53.808L765.235 53.936ZM797.716 35.056V48.496H811.028V35.056H820.564V70H811.028V55.6H797.716V70H788.18V35.056H797.716Z" fill="white"/>
<path d="M-98.912 70L-109.92 34.16H-110.176C-110.133 35.0133 -110.069 36.2933 -109.984 38C-109.899 39.7067 -109.813 41.5413 -109.728 43.504C-109.643 45.424 -109.6 47.1733 -109.6 48.752V70H-118.24V24.304H-105.056L-94.24 59.248H-94.048L-82.592 24.304H-69.408V70H-78.432V48.368C-78.432 46.9173 -78.4107 45.2533 -78.368 43.376C-78.2827 41.4987 -78.2187 39.728 -78.176 38.064C-78.0907 36.3573 -78.0267 35.0773 -77.984 34.224H-78.24L-90.016 70H-98.912ZM-26.889 52.464C-26.889 58.2667 -28.425 62.7467 -31.497 65.904C-34.5263 69.0613 -38.665 70.64 -43.913 70.64C-47.1557 70.64 -50.057 69.936 -52.617 68.528C-55.1343 67.12 -57.1183 65.072 -58.569 62.384C-60.0197 59.6533 -60.745 56.3467 -60.745 52.464C-60.745 46.6613 -59.2303 42.2027 -56.201 39.088C-53.1717 35.9733 -49.0117 34.416 -43.721 34.416C-40.4357 34.416 -37.5343 35.12 -35.017 36.528C-32.4997 37.936 -30.5157 39.984 -29.065 42.672C-27.6143 45.3173 -26.889 48.5813 -26.889 52.464ZM-51.017 52.464C-51.017 55.92 -50.4623 58.544 -49.353 60.336C-48.201 62.0853 -46.345 62.96 -43.785 62.96C-41.2677 62.96 -39.4543 62.0853 -38.345 60.336C-37.193 58.544 -36.617 55.92 -36.617 52.464C-36.617 49.008 -37.193 46.4267 -38.345 44.72C-39.4543 42.9707 -41.289 42.096 -43.849 42.096C-46.3663 42.096 -48.201 42.9707 -49.353 44.72C-50.4623 46.4267 -51.017 49.008 -51.017 52.464ZM-4.8 70.64C-10.0053 70.64 -14.0373 69.2107 -16.896 66.352C-19.712 63.4507 -21.12 58.9067 -21.12 52.72C-21.12 48.4533 -20.3947 44.976 -18.944 42.288C-17.4933 39.6 -15.488 37.616 -12.928 36.336C-10.3253 35.056 -7.33867 34.416 -3.968 34.416C-1.57867 34.416 0.490668 34.6507 2.24 35.12C4.032 35.5893 5.58933 36.144 6.912 36.784L4.096 44.144C2.60267 43.5467 1.19467 43.056 -0.127998 42.672C-1.408 42.288 -2.688 42.096 -3.968 42.096C-8.91733 42.096 -11.392 45.616 -11.392 52.656C-11.392 56.1547 -10.752 58.736 -9.472 60.4C-8.14933 62.064 -6.31467 62.896 -3.968 62.896C-1.96267 62.896 -0.191999 62.64 1.344 62.128C2.88 61.5733 4.37333 60.8267 5.824 59.888V68.016C4.37333 68.9547 2.83733 69.616 1.216 70C-0.362665 70.4267 -2.368 70.64 -4.8 70.64ZM36.779 35.056H47.275L33.451 51.824L48.491 70H37.675L23.403 52.272V70H13.867V35.056H23.403V52.016L36.779 35.056ZM84.468 44.208C84.468 46.0853 83.8707 47.6853 82.676 49.008C81.524 50.3307 79.796 51.184 77.492 51.568V51.824C79.924 52.1227 81.8653 52.9547 83.316 54.32C84.8093 55.6853 85.556 57.4347 85.556 59.568C85.556 61.5733 85.0227 63.3653 83.956 64.944C82.932 66.5227 81.2893 67.76 79.028 68.656C76.7667 69.552 73.8013 70 70.132 70H53.492V35.056H70.132C72.8627 35.056 75.2947 35.3547 77.428 35.952C79.604 36.5067 81.3107 37.4453 82.548 38.768C83.828 40.0907 84.468 41.904 84.468 44.208ZM74.804 44.976C74.804 42.8427 73.1187 41.776 69.748 41.776H63.028V48.688H68.66C70.6653 48.688 72.18 48.4107 73.204 47.856C74.2707 47.2587 74.804 46.2987 74.804 44.976ZM75.7 59.056C75.7 57.6907 75.1667 56.7093 74.1 56.112C73.0333 55.472 71.4333 55.152 69.3 55.152H63.028V63.408H69.492C71.284 63.408 72.756 63.088 73.908 62.448C75.1027 61.7653 75.7 60.6347 75.7 59.056ZM108.078 34.352C112.771 34.352 116.355 35.376 118.83 37.424C121.347 39.4293 122.606 42.5227 122.606 46.704V70H115.95L114.094 65.264H113.838C112.345 67.1413 110.766 68.5067 109.102 69.36C107.438 70.2133 105.155 70.64 102.254 70.64C99.1393 70.64 96.558 69.744 94.51 67.952C92.462 66.1173 91.438 63.3227 91.438 59.568C91.438 55.856 92.7393 53.1253 95.342 51.376C97.9447 49.584 101.849 48.6027 107.054 48.432L113.134 48.24V46.704C113.134 44.8693 112.643 43.5253 111.662 42.672C110.723 41.8187 109.401 41.392 107.694 41.392C105.987 41.392 104.323 41.648 102.702 42.16C101.081 42.6293 99.4593 43.2267 97.838 43.952L94.702 37.488C96.5793 36.5067 98.6487 35.7387 100.91 35.184C103.214 34.6293 105.603 34.352 108.078 34.352ZM109.422 53.936C106.35 54.0213 104.217 54.576 103.022 55.6C101.827 56.624 101.23 57.968 101.23 59.632C101.23 61.0827 101.657 62.128 102.51 62.768C103.363 63.3653 104.473 63.664 105.838 63.664C107.886 63.664 109.614 63.0667 111.022 61.872C112.43 60.6347 113.134 58.9067 113.134 56.688V53.808L109.422 53.936Z" fill="white"/>
<path d="M209.536 24.304V61.936H215.616V83.312H206.272V70H177.664V83.312H168.32V61.936H171.84C173.461 58.736 174.976 55.3227 176.384 51.696C177.792 48.0267 179.051 43.952 180.16 39.472C181.312 34.992 182.229 29.936 182.912 24.304H209.536ZM190.592 32.368C190.208 35.312 189.589 38.512 188.736 41.968C187.925 45.3813 186.944 48.816 185.792 52.272C184.64 55.6853 183.381 58.9067 182.016 61.936H199.872V32.368H190.592ZM216.875 35.056H227.307L233.899 54.704C234.24 55.6427 234.496 56.624 234.667 57.648C234.838 58.6293 234.966 59.6747 235.051 60.784H235.243C235.371 59.6747 235.542 58.6293 235.755 57.648C236.011 56.624 236.288 55.6427 236.587 54.704L243.051 35.056H253.291L238.507 74.48C237.184 78.1067 235.243 80.816 232.683 82.608C230.166 84.4427 227.243 85.36 223.915 85.36C222.848 85.36 221.91 85.296 221.099 85.168C220.331 85.0827 219.648 84.976 219.051 84.848V77.296C219.52 77.3813 220.075 77.4667 220.715 77.552C221.398 77.6373 222.102 77.68 222.827 77.68C224.832 77.68 226.411 77.0613 227.563 75.824C228.758 74.6293 229.632 73.1787 230.187 71.472L230.763 69.744L216.875 35.056ZM256.193 49.072C256.193 41.3493 257.643 35.3547 260.545 31.088C263.489 26.8213 268.331 24.0907 275.073 22.896C277.334 22.512 279.617 22.192 281.921 21.936C284.267 21.6373 286.678 21.3387 289.153 21.04L290.241 29.36C288.79 29.5307 287.19 29.7227 285.441 29.936C283.734 30.1493 282.027 30.3627 280.321 30.576C278.657 30.7467 277.163 30.9387 275.841 31.152C273.707 31.4933 271.937 32.0267 270.529 32.752C269.121 33.4347 268.033 34.544 267.265 36.08C266.539 37.616 266.091 39.8347 265.921 42.736H266.369C266.881 41.9253 267.585 41.1147 268.481 40.304C269.419 39.4933 270.571 38.8107 271.937 38.256C273.302 37.7013 274.859 37.424 276.609 37.424C280.79 37.424 284.097 38.704 286.529 41.264C289.003 43.824 290.241 47.6427 290.241 52.72C290.241 56.688 289.515 59.9947 288.065 62.64C286.614 65.2853 284.609 67.2907 282.049 68.656C279.489 69.9787 276.523 70.64 273.153 70.64C267.99 70.64 263.873 68.784 260.801 65.072C257.729 61.36 256.193 56.0267 256.193 49.072ZM273.729 62.896C275.734 62.896 277.355 62.2133 278.593 60.848C279.873 59.4827 280.513 57.0507 280.513 53.552C280.513 50.7787 280.043 48.5813 279.105 46.96C278.209 45.296 276.63 44.464 274.369 44.464C273.003 44.464 271.723 44.8053 270.529 45.488C269.377 46.128 268.395 46.8747 267.585 47.728C266.774 48.5387 266.219 49.2427 265.921 49.84C265.921 52.016 266.155 54.1067 266.625 56.112C267.094 58.1173 267.883 59.76 268.993 61.04C270.145 62.2773 271.723 62.896 273.729 62.896ZM312.453 34.352C317.146 34.352 320.73 35.376 323.205 37.424C325.722 39.4293 326.981 42.5227 326.981 46.704V70H320.325L318.469 65.264H318.213C316.72 67.1413 315.141 68.5067 313.477 69.36C311.813 70.2133 309.53 70.64 306.629 70.64C303.514 70.64 300.933 69.744 298.885 67.952C296.837 66.1173 295.813 63.3227 295.813 59.568C295.813 55.856 297.114 53.1253 299.717 51.376C302.32 49.584 306.224 48.6027 311.429 48.432L317.509 48.24V46.704C317.509 44.8693 317.018 43.5253 316.037 42.672C315.098 41.8187 313.776 41.392 312.069 41.392C310.362 41.392 308.698 41.648 307.077 42.16C305.456 42.6293 303.834 43.2267 302.213 43.952L299.077 37.488C300.954 36.5067 303.024 35.7387 305.285 35.184C307.589 34.6293 309.978 34.352 312.453 34.352ZM313.797 53.936C310.725 54.0213 308.592 54.576 307.397 55.6C306.202 56.624 305.605 57.968 305.605 59.632C305.605 61.0827 306.032 62.128 306.885 62.768C307.738 63.3653 308.848 63.664 310.213 63.664C312.261 63.664 313.989 63.0667 315.397 61.872C316.805 60.6347 317.509 58.9067 317.509 56.688V53.808L313.797 53.936ZM370.214 20.016C370.001 22.2347 369.382 24.1973 368.358 25.904C367.334 27.568 365.734 28.8693 363.558 29.808C361.382 30.7467 358.459 31.216 354.79 31.216C351.035 31.216 348.091 30.768 345.958 29.872C343.867 28.9333 342.374 27.632 341.478 25.968C340.582 24.304 340.049 22.32 339.878 20.016H348.39C348.603 22.3627 349.201 23.92 350.182 24.688C351.163 25.456 352.763 25.84 354.982 25.84C356.817 25.84 358.31 25.4347 359.462 24.624C360.657 23.7707 361.361 22.2347 361.574 20.016H370.214ZM345.958 48.88C345.958 49.6053 345.915 50.5013 345.83 51.568C345.787 52.6347 345.723 53.7227 345.638 54.832C345.595 55.9413 345.531 56.9227 345.446 57.776C345.361 58.6293 345.297 59.2267 345.254 59.568L361.382 35.056H372.838V70H363.622V56.048C363.622 54.896 363.665 53.6373 363.75 52.272C363.835 50.864 363.921 49.5627 364.006 48.368C364.134 47.1307 364.219 46.192 364.262 45.552L348.198 70H336.742V35.056H345.958V48.88Z" fill="white"/>
<path d="M871.76 24.304H880.464V46.384C880.464 47.4507 880.443 48.6453 880.4 49.968C880.357 51.2907 880.315 52.592 880.272 53.872C880.229 55.1093 880.187 56.1973 880.144 57.136C880.101 58.032 880.059 58.6507 880.016 58.992H880.208L901.328 24.304H912.912V70H904.272V48.048C904.272 46.896 904.293 45.6373 904.336 44.272C904.379 42.864 904.421 41.52 904.464 40.24C904.549 38.96 904.613 37.8507 904.656 36.912C904.741 35.9307 904.805 35.2907 904.848 34.992H904.592L883.408 70H871.76V24.304ZM933.216 35.056V48.496H946.528V35.056H956.064V70H946.528V55.6H933.216V70H923.68V35.056H933.216ZM997.479 35.056V63.024H1002.6V82.544H994.023V70H970.535V82.544H961.959V63.024H964.903C966.439 60.6773 967.74 58.0107 968.807 55.024C969.873 51.9947 970.727 48.7733 971.367 45.36C972.007 41.9467 972.476 38.512 972.775 35.056H997.479ZM980.775 42.224C980.263 46.1067 979.559 49.7973 978.663 53.296C977.767 56.752 976.508 59.9947 974.887 63.024H987.943V42.224H980.775ZM1040.3 52.464C1040.3 58.2667 1038.76 62.7467 1035.69 65.904C1032.66 69.0613 1028.52 70.64 1023.27 70.64C1020.03 70.64 1017.13 69.936 1014.57 68.528C1012.05 67.12 1010.07 65.072 1008.62 62.384C1007.17 59.6533 1006.44 56.3467 1006.44 52.464C1006.44 46.6613 1007.96 42.2027 1010.99 39.088C1014.02 35.9733 1018.18 34.416 1023.47 34.416C1026.75 34.416 1029.65 35.12 1032.17 36.528C1034.69 37.936 1036.67 39.984 1038.12 42.672C1039.57 45.3173 1040.3 48.5813 1040.3 52.464ZM1016.17 52.464C1016.17 55.92 1016.73 58.544 1017.83 60.336C1018.99 62.0853 1020.84 62.96 1023.4 62.96C1025.92 62.96 1027.73 62.0853 1028.84 60.336C1029.99 58.544 1030.57 55.92 1030.57 52.464C1030.57 49.008 1029.99 46.4267 1028.84 44.72C1027.73 42.9707 1025.9 42.096 1023.34 42.096C1020.82 42.096 1018.99 42.9707 1017.83 44.72C1016.73 46.4267 1016.17 49.008 1016.17 52.464ZM1057.72 35.056V48.496H1071.03V35.056H1080.56V70H1071.03V55.6H1057.72V70H1048.18V35.056H1057.72ZM1104.95 34.416C1109.78 34.416 1113.59 35.8027 1116.41 38.576C1119.23 41.3067 1120.63 45.2107 1120.63 50.288V54.896H1098.11C1098.19 57.584 1098.98 59.696 1100.47 61.232C1102.01 62.768 1104.12 63.536 1106.81 63.536C1109.07 63.536 1111.12 63.3227 1112.95 62.896C1114.79 62.4267 1116.69 61.7227 1118.65 60.784V68.144C1116.94 68.9973 1115.13 69.616 1113.21 70C1111.33 70.4267 1109.05 70.64 1106.36 70.64C1102.86 70.64 1099.77 70 1097.08 68.72C1094.39 67.3973 1092.28 65.4133 1090.75 62.768C1089.21 60.1227 1088.44 56.7947 1088.44 52.784C1088.44 48.688 1089.13 45.296 1090.49 42.608C1091.9 39.8773 1093.84 37.8293 1096.31 36.464C1098.79 35.0987 1101.67 34.416 1104.95 34.416ZM1105.02 41.2C1103.18 41.2 1101.65 41.7973 1100.41 42.992C1099.22 44.1867 1098.51 46.0427 1098.3 48.56H1111.67C1111.63 46.4267 1111.08 44.6773 1110.01 43.312C1108.94 41.904 1107.28 41.2 1105.02 41.2ZM1141.1 34.416C1143.62 34.416 1145.97 34.7573 1148.14 35.44C1150.36 36.08 1152.13 37.0827 1153.46 38.448C1154.82 39.8133 1155.5 41.5627 1155.5 43.696C1155.5 45.7867 1154.86 47.4507 1153.58 48.688C1152.35 49.9253 1150.66 50.8213 1148.53 51.376V51.696C1150.02 52.0373 1151.36 52.528 1152.56 53.168C1153.75 53.7653 1154.69 54.5973 1155.38 55.664C1156.1 56.688 1156.46 58.0747 1156.46 59.824C1156.46 61.744 1155.84 63.536 1154.61 65.2C1153.41 66.8213 1151.54 68.144 1148.98 69.168C1146.46 70.1493 1143.22 70.64 1139.25 70.64C1133.44 70.64 1128.96 69.9147 1125.81 68.464V60.592C1127.26 61.2747 1129.03 61.8933 1131.12 62.448C1133.25 63.0027 1135.51 63.28 1137.9 63.28C1140.51 63.28 1142.7 62.9813 1144.5 62.384C1146.29 61.7867 1147.18 60.7413 1147.18 59.248C1147.18 56.4747 1143.88 55.088 1137.26 55.088H1133.55V48.496H1137.07C1140.23 48.496 1142.66 48.24 1144.37 47.728C1146.12 47.216 1146.99 46.256 1146.99 44.848C1146.99 43.7387 1146.44 42.9067 1145.33 42.352C1144.22 41.7547 1142.4 41.456 1139.89 41.456C1138.22 41.456 1136.41 41.648 1134.45 42.032C1132.48 42.416 1130.63 42.9707 1128.88 43.696L1126.06 37.04C1128.07 36.272 1130.27 35.6533 1132.66 35.184C1135.04 34.672 1137.86 34.416 1141.1 34.416ZM1173.08 48.88C1173.08 49.6053 1173.04 50.5013 1172.96 51.568C1172.91 52.6347 1172.85 53.7227 1172.76 54.832C1172.72 55.9413 1172.66 56.9227 1172.57 57.776C1172.49 58.6293 1172.42 59.2267 1172.38 59.568L1188.51 35.056H1199.96V70H1190.75V56.048C1190.75 54.896 1190.79 53.6373 1190.88 52.272C1190.96 50.864 1191.05 49.5627 1191.13 48.368C1191.26 47.1307 1191.34 46.192 1191.39 45.552L1175.32 70H1163.87V35.056H1173.08V48.88ZM1215.24 70H1204.94L1214.35 56.176C1212.55 55.4507 1210.95 54.2773 1209.55 52.656C1208.18 50.992 1207.5 48.7307 1207.5 45.872C1207.5 42.3733 1208.82 39.7067 1211.47 37.872C1214.11 35.9947 1217.5 35.056 1221.64 35.056H1237.9V70H1228.36V57.008H1223.11L1215.24 70ZM1216.84 45.936C1216.84 47.3867 1217.42 48.5387 1218.57 49.392C1219.72 50.2027 1221.21 50.608 1223.05 50.608H1228.36V41.776H1221.83C1220.13 41.776 1218.87 42.2027 1218.06 43.056C1217.25 43.8667 1216.84 44.8267 1216.84 45.936Z" fill="white"/>
<path d="M734.192 146H728L718.676 132.968V146H713.24V120.296H718.676V132.752L727.892 120.296H733.688L724.328 132.644L734.192 146ZM745.06 125.948C747.7 125.948 749.716 126.524 751.108 127.676C752.524 128.804 753.232 130.544 753.232 132.896V146H749.488L748.444 143.336H748.3C747.46 144.392 746.572 145.16 745.636 145.64C744.7 146.12 743.416 146.36 741.784 146.36C740.032 146.36 738.58 145.856 737.428 144.848C736.276 143.816 735.7 142.244 735.7 140.132C735.7 138.044 736.432 136.508 737.896 135.524C739.36 134.516 741.556 133.964 744.484 133.868L747.904 133.76V132.896C747.904 131.864 747.628 131.108 747.076 130.628C746.548 130.148 745.804 129.908 744.844 129.908C743.884 129.908 742.948 130.052 742.036 130.34C741.124 130.604 740.212 130.94 739.3 131.348L737.536 127.712C738.592 127.16 739.756 126.728 741.028 126.416C742.324 126.104 743.668 125.948 745.06 125.948ZM745.816 136.964C744.088 137.012 742.888 137.324 742.216 137.9C741.544 138.476 741.208 139.232 741.208 140.168C741.208 140.984 741.448 141.572 741.928 141.932C742.408 142.268 743.032 142.436 743.8 142.436C744.952 142.436 745.924 142.1 746.716 141.428C747.508 140.732 747.904 139.76 747.904 138.512V136.892L745.816 136.964ZM765.886 125.984C767.302 125.984 768.622 126.176 769.846 126.56C771.094 126.92 772.09 127.484 772.834 128.252C773.602 129.02 773.986 130.004 773.986 131.204C773.986 132.38 773.626 133.316 772.906 134.012C772.21 134.708 771.262 135.212 770.062 135.524V135.704C770.902 135.896 771.658 136.172 772.33 136.532C773.002 136.868 773.53 137.336 773.914 137.936C774.322 138.512 774.526 139.292 774.526 140.276C774.526 141.356 774.178 142.364 773.482 143.3C772.81 144.212 771.754 144.956 770.314 145.532C768.898 146.084 767.074 146.36 764.842 146.36C761.578 146.36 759.058 145.952 757.282 145.136V140.708C758.098 141.092 759.094 141.44 760.27 141.752C761.47 142.064 762.742 142.22 764.086 142.22C765.55 142.22 766.786 142.052 767.794 141.716C768.802 141.38 769.306 140.792 769.306 139.952C769.306 138.392 767.446 137.612 763.726 137.612H761.638V133.904H763.618C765.394 133.904 766.762 133.76 767.722 133.472C768.706 133.184 769.198 132.644 769.198 131.852C769.198 131.228 768.886 130.76 768.262 130.448C767.638 130.112 766.618 129.944 765.202 129.944C764.266 129.944 763.246 130.052 762.142 130.268C761.038 130.484 759.994 130.796 759.01 131.204L757.426 127.46C758.554 127.028 759.79 126.68 761.134 126.416C762.478 126.128 764.062 125.984 765.886 125.984ZM786.755 125.948C789.395 125.948 791.411 126.524 792.803 127.676C794.219 128.804 794.927 130.544 794.927 132.896V146H791.183L790.139 143.336H789.995C789.155 144.392 788.267 145.16 787.331 145.64C786.395 146.12 785.111 146.36 783.479 146.36C781.727 146.36 780.275 145.856 779.123 144.848C777.971 143.816 777.395 142.244 777.395 140.132C777.395 138.044 778.127 136.508 779.591 135.524C781.055 134.516 783.251 133.964 786.179 133.868L789.599 133.76V132.896C789.599 131.864 789.323 131.108 788.771 130.628C788.243 130.148 787.499 129.908 786.539 129.908C785.579 129.908 784.643 130.052 783.731 130.34C782.819 130.604 781.907 130.94 780.995 131.348L779.231 127.712C780.287 127.16 781.451 126.728 782.723 126.416C784.019 126.104 785.363 125.948 786.755 125.948ZM787.511 136.964C785.783 137.012 784.583 137.324 783.911 137.9C783.239 138.476 782.903 139.232 782.903 140.168C782.903 140.984 783.143 141.572 783.623 141.932C784.103 142.268 784.727 142.436 785.495 142.436C786.647 142.436 787.619 142.1 788.411 141.428C789.203 140.732 789.599 139.76 789.599 138.512V136.892L787.511 136.964ZM813.305 126.344H819.209L811.433 135.776L819.893 146H813.809L805.781 136.028V146H800.417V126.344H805.781V135.884L813.305 126.344ZM829.995 146.36C827.067 146.36 824.799 145.556 823.191 143.948C821.607 142.316 820.815 139.76 820.815 136.28C820.815 133.88 821.223 131.924 822.039 130.412C822.855 128.9 823.983 127.784 825.423 127.064C826.887 126.344 828.567 125.984 830.463 125.984C831.807 125.984 832.971 126.116 833.955 126.38C834.963 126.644 835.839 126.956 836.583 127.316L834.999 131.456C834.159 131.12 833.367 130.844 832.623 130.628C831.903 130.412 831.183 130.304 830.463 130.304C827.679 130.304 826.287 132.284 826.287 136.244C826.287 138.212 826.647 139.664 827.367 140.6C828.111 141.536 829.143 142.004 830.463 142.004C831.591 142.004 832.587 141.86 833.451 141.572C834.315 141.26 835.155 140.84 835.971 140.312V144.884C835.155 145.412 834.291 145.784 833.379 146C832.491 146.24 831.363 146.36 829.995 146.36ZM856.768 130.376H850.324V146H844.96V130.376H838.516V126.344H856.768V130.376ZM868.458 125.948C871.098 125.948 873.114 126.524 874.506 127.676C875.922 128.804 876.63 130.544 876.63 132.896V146H872.886L871.842 143.336H871.698C870.858 144.392 869.97 145.16 869.034 145.64C868.098 146.12 866.814 146.36 865.182 146.36C863.43 146.36 861.978 145.856 860.826 144.848C859.674 143.816 859.098 142.244 859.098 140.132C859.098 138.044 859.83 136.508 861.294 135.524C862.758 134.516 864.954 133.964 867.882 133.868L871.302 133.76V132.896C871.302 131.864 871.026 131.108 870.474 130.628C869.946 130.148 869.202 129.908 868.242 129.908C867.282 129.908 866.346 130.052 865.434 130.34C864.522 130.604 863.61 130.94 862.698 131.348L860.934 127.712C861.99 127.16 863.154 126.728 864.426 126.416C865.722 126.104 867.066 125.948 868.458 125.948ZM869.214 136.964C867.486 137.012 866.286 137.324 865.614 137.9C864.942 138.476 864.606 139.232 864.606 140.168C864.606 140.984 864.846 141.572 865.326 141.932C865.806 142.268 866.43 142.436 867.198 142.436C868.35 142.436 869.322 142.1 870.114 141.428C870.906 140.732 871.302 139.76 871.302 138.512V136.892L869.214 136.964ZM887.485 126.344V133.904H894.973V126.344H900.337V146H894.973V137.9H887.485V146H882.121V126.344H887.485Z" fill="white"/>
<path d="M-219.179 146H-225.371L-234.695 132.968V146H-240.131V120.296H-234.695V132.752L-225.479 120.296H-219.683L-229.043 132.644L-219.179 146ZM-208.312 125.948C-205.672 125.948 -203.656 126.524 -202.264 127.676C-200.848 128.804 -200.14 130.544 -200.14 132.896V146H-203.884L-204.928 143.336H-205.072C-205.912 144.392 -206.8 145.16 -207.736 145.64C-208.672 146.12 -209.956 146.36 -211.588 146.36C-213.34 146.36 -214.792 145.856 -215.944 144.848C-217.096 143.816 -217.672 142.244 -217.672 140.132C-217.672 138.044 -216.94 136.508 -215.476 135.524C-214.012 134.516 -211.816 133.964 -208.888 133.868L-205.468 133.76V132.896C-205.468 131.864 -205.744 131.108 -206.296 130.628C-206.824 130.148 -207.568 129.908 -208.528 129.908C-209.488 129.908 -210.424 130.052 -211.336 130.34C-212.248 130.604 -213.16 130.94 -214.072 131.348L-215.836 127.712C-214.78 127.16 -213.616 126.728 -212.344 126.416C-211.048 126.104 -209.704 125.948 -208.312 125.948ZM-207.556 136.964C-209.284 137.012 -210.484 137.324 -211.156 137.9C-211.828 138.476 -212.164 139.232 -212.164 140.168C-212.164 140.984 -211.924 141.572 -211.444 141.932C-210.964 142.268 -210.34 142.436 -209.572 142.436C-208.42 142.436 -207.448 142.1 -206.656 141.428C-205.864 140.732 -205.468 139.76 -205.468 138.512V136.892L-207.556 136.964ZM-177.045 146H-182.409V130.376H-187.341C-187.653 134.216 -188.073 137.312 -188.601 139.664C-189.105 141.992 -189.813 143.696 -190.725 144.776C-191.637 145.832 -192.861 146.36 -194.397 146.36C-195.645 146.36 -196.665 146.168 -197.457 145.784V141.5C-196.905 141.74 -196.329 141.86 -195.729 141.86C-195.297 141.86 -194.901 141.644 -194.541 141.212C-194.181 140.78 -193.845 140 -193.533 138.872C-193.197 137.744 -192.897 136.172 -192.633 134.156C-192.369 132.116 -192.129 129.512 -191.913 126.344H-177.045V146ZM-166.262 134.12C-166.262 134.528 -166.286 135.032 -166.334 135.632C-166.358 136.232 -166.394 136.844 -166.442 137.468C-166.466 138.092 -166.502 138.644 -166.55 139.124C-166.598 139.604 -166.634 139.94 -166.658 140.132L-157.586 126.344H-151.142V146H-156.326V138.152C-156.326 137.504 -156.302 136.796 -156.254 136.028C-156.206 135.236 -156.158 134.504 -156.11 133.832C-156.038 133.136 -155.99 132.608 -155.966 132.248L-165.002 146H-171.446V126.344H-166.262V134.12ZM-140.172 126.344V133.904H-132.684V126.344H-127.32V146H-132.684V137.9H-140.172V146H-145.536V126.344H-140.172ZM-116.516 134.12C-116.516 134.528 -116.54 135.032 -116.588 135.632C-116.612 136.232 -116.648 136.844 -116.696 137.468C-116.72 138.092 -116.756 138.644 -116.804 139.124C-116.852 139.604 -116.888 139.94 -116.912 140.132L-107.84 126.344H-101.396V146H-106.58V138.152C-106.58 137.504 -106.556 136.796 -106.508 136.028C-106.46 135.236 -106.412 134.504 -106.364 133.832C-106.292 133.136 -106.244 132.608 -106.22 132.248L-115.256 146H-121.7V126.344H-116.516V134.12ZM-90.4257 126.344V133.904H-82.9377V126.344H-77.5737V146H-82.9377V137.9H-90.4257V146H-95.7897V126.344H-90.4257ZM-58.3817 126.344V130.376H-66.5897V146H-71.9537V126.344H-58.3817ZM-43.8183 125.984C-41.6103 125.984 -39.8223 126.848 -38.4543 128.576C-37.0863 130.28 -36.4023 132.8 -36.4023 136.136C-36.4023 139.472 -37.1103 142.016 -38.5263 143.768C-39.9423 145.496 -41.7543 146.36 -43.9623 146.36C-45.3783 146.36 -46.5063 146.108 -47.3463 145.604C-48.1863 145.076 -48.8703 144.488 -49.3983 143.84H-49.6863C-49.4943 144.848 -49.3983 145.808 -49.3983 146.72V154.64H-54.7623V126.344H-50.4063L-49.6503 128.9H-49.3983C-48.8703 128.108 -48.1623 127.424 -47.2743 126.848C-46.3863 126.272 -45.2343 125.984 -43.8183 125.984ZM-45.5463 130.268C-46.9383 130.268 -47.9223 130.7 -48.4983 131.564C-49.0503 132.428 -49.3503 133.748 -49.3983 135.524V136.1C-49.3983 137.996 -49.1223 139.46 -48.5703 140.492C-47.9943 141.5 -46.9623 142.004 -45.4743 142.004C-44.2503 142.004 -43.3503 141.5 -42.7743 140.492C-42.1743 139.46 -41.8743 137.984 -41.8743 136.064C-41.8743 132.2 -43.0983 130.268 -45.5463 130.268ZM-23.9171 125.948C-21.2771 125.948 -19.2611 126.524 -17.8691 127.676C-16.4531 128.804 -15.7451 130.544 -15.7451 132.896V146H-19.4891L-20.5331 143.336H-20.6771C-21.5171 144.392 -22.4051 145.16 -23.3411 145.64C-24.2771 146.12 -25.5611 146.36 -27.1931 146.36C-28.9451 146.36 -30.3971 145.856 -31.5491 144.848C-32.7011 143.816 -33.2771 142.244 -33.2771 140.132C-33.2771 138.044 -32.5451 136.508 -31.0811 135.524C-29.6171 134.516 -27.4211 133.964 -24.4931 133.868L-21.0731 133.76V132.896C-21.0731 131.864 -21.3491 131.108 -21.9011 130.628C-22.4291 130.148 -23.1731 129.908 -24.1331 129.908C-25.0931 129.908 -26.0291 130.052 -26.9411 130.34C-27.8531 130.604 -28.7651 130.94 -29.6771 131.348L-31.4411 127.712C-30.3851 127.16 -29.2211 126.728 -27.9491 126.416C-26.6531 126.104 -25.3091 125.948 -23.9171 125.948ZM-23.1611 136.964C-24.8891 137.012 -26.0891 137.324 -26.7611 137.9C-27.4331 138.476 -27.7691 139.232 -27.7691 140.168C-27.7691 140.984 -27.5291 141.572 -27.0491 141.932C-26.5691 142.268 -25.9451 142.436 -25.1771 142.436C-24.0251 142.436 -23.0531 142.1 -22.2611 141.428C-21.4691 140.732 -21.0731 139.76 -21.0731 138.512V136.892L-23.1611 136.964ZM7.4215 126.344V142.076H10.3015V153.056H5.4775V146H-7.7345V153.056H-12.5585V142.076H-10.9025C-10.0385 140.756 -9.3065 139.256 -8.7065 137.576C-8.1065 135.872 -7.6265 134.06 -7.2665 132.14C-6.9065 130.22 -6.6425 128.288 -6.4745 126.344H7.4215ZM-1.9745 130.376C-2.2625 132.56 -2.6585 134.636 -3.1625 136.604C-3.6665 138.548 -4.3745 140.372 -5.2865 142.076H2.0575V130.376H-1.9745Z" fill="white"/>
<path d="M230.192 146H224L214.676 132.968V146H209.24V120.296H214.676V132.752L223.892 120.296H229.688L220.328 132.644L230.192 146ZM238.18 134.12C238.18 134.528 238.156 135.032 238.108 135.632C238.084 136.232 238.048 136.844 238 137.468C237.976 138.092 237.94 138.644 237.892 139.124C237.844 139.604 237.808 139.94 237.784 140.132L246.856 126.344H253.3V146H248.116V138.152C248.116 137.504 248.14 136.796 248.188 136.028C248.236 135.236 248.284 134.504 248.332 133.832C248.404 133.136 248.452 132.608 248.476 132.248L239.439 146H232.996V126.344H238.18V134.12ZM275.178 130.376H268.734V146H263.37V130.376H256.926V126.344H275.178V130.376ZM286.868 125.948C289.508 125.948 291.524 126.524 292.916 127.676C294.332 128.804 295.04 130.544 295.04 132.896V146H291.296L290.252 143.336H290.108C289.268 144.392 288.38 145.16 287.444 145.64C286.508 146.12 285.224 146.36 283.592 146.36C281.84 146.36 280.388 145.856 279.236 144.848C278.084 143.816 277.508 142.244 277.508 140.132C277.508 138.044 278.24 136.508 279.704 135.524C281.168 134.516 283.364 133.964 286.292 133.868L289.712 133.76V132.896C289.712 131.864 289.436 131.108 288.884 130.628C288.356 130.148 287.612 129.908 286.652 129.908C285.692 129.908 284.756 130.052 283.844 130.34C282.932 130.604 282.02 130.94 281.108 131.348L279.344 127.712C280.4 127.16 281.564 126.728 282.836 126.416C284.132 126.104 285.476 125.948 286.868 125.948ZM287.624 136.964C285.896 137.012 284.696 137.324 284.024 137.9C283.352 138.476 283.016 139.232 283.016 140.168C283.016 140.984 283.256 141.572 283.736 141.932C284.216 142.268 284.84 142.436 285.608 142.436C286.76 142.436 287.732 142.1 288.524 141.428C289.316 140.732 289.712 139.76 289.712 138.512V136.892L287.624 136.964ZM319.359 117.884C319.239 119.132 318.891 120.236 318.315 121.196C317.739 122.132 316.839 122.864 315.615 123.392C314.391 123.92 312.747 124.184 310.683 124.184C308.571 124.184 306.915 123.932 305.715 123.428C304.539 122.9 303.699 122.168 303.195 121.232C302.691 120.296 302.391 119.18 302.295 117.884H307.083C307.203 119.204 307.539 120.08 308.091 120.512C308.643 120.944 309.543 121.16 310.791 121.16C311.823 121.16 312.663 120.932 313.311 120.476C313.983 119.996 314.379 119.132 314.499 117.884H319.359ZM305.715 134.12C305.715 134.528 305.691 135.032 305.643 135.632C305.619 136.232 305.583 136.844 305.535 137.468C305.511 138.092 305.475 138.644 305.427 139.124C305.379 139.604 305.343 139.94 305.319 140.132L314.391 126.344H320.835V146H315.651V138.152C315.651 137.504 315.675 136.796 315.723 136.028C315.771 135.236 315.819 134.504 315.867 133.832C315.939 133.136 315.987 132.608 316.011 132.248L306.975 146H300.531V126.344H305.715V134.12Z" fill="white"/>
<path d="M85.192 146H79L69.676 132.968V146H64.24V120.296H69.676V132.752L78.892 120.296H84.688L75.328 132.644L85.192 146ZM93.1795 134.12C93.1795 134.528 93.1555 135.032 93.1075 135.632C93.0835 136.232 93.0475 136.844 92.9995 137.468C92.9755 138.092 92.9395 138.644 92.8915 139.124C92.8435 139.604 92.8075 139.94 92.7835 140.132L101.856 126.344H108.3V146H103.116V138.152C103.116 137.504 103.14 136.796 103.188 136.028C103.236 135.236 103.284 134.504 103.332 133.832C103.404 133.136 103.452 132.608 103.476 132.248L94.4395 146H87.9955V126.344H93.1795V134.12ZM122.006 125.984C124.718 125.984 126.866 126.764 128.45 128.324C130.034 129.86 130.826 132.056 130.826 134.912V137.504H118.154C118.202 139.016 118.646 140.204 119.486 141.068C120.35 141.932 121.538 142.364 123.05 142.364C124.322 142.364 125.474 142.244 126.506 142.004C127.538 141.74 128.606 141.344 129.71 140.816V144.956C128.75 145.436 127.73 145.784 126.65 146C125.594 146.24 124.31 146.36 122.798 146.36C120.83 146.36 119.09 146 117.578 145.28C116.066 144.536 114.878 143.42 114.014 141.932C113.15 140.444 112.718 138.572 112.718 136.316C112.718 134.012 113.102 132.104 113.87 130.592C114.662 129.056 115.754 127.904 117.146 127.136C118.538 126.368 120.158 125.984 122.006 125.984ZM122.042 129.8C121.01 129.8 120.146 130.136 119.45 130.808C118.778 131.48 118.382 132.524 118.262 133.94H125.786C125.762 132.74 125.45 131.756 124.85 130.988C124.25 130.196 123.314 129.8 122.042 129.8ZM152.599 131.492C152.599 132.548 152.263 133.448 151.591 134.192C150.943 134.936 149.971 135.416 148.675 135.632V135.776C150.043 135.944 151.135 136.412 151.951 137.18C152.791 137.948 153.211 138.932 153.211 140.132C153.211 141.26 152.911 142.268 152.311 143.156C151.735 144.044 150.811 144.74 149.539 145.244C148.267 145.748 146.599 146 144.535 146H135.175V126.344H144.535C146.071 126.344 147.439 126.512 148.639 126.848C149.863 127.16 150.823 127.688 151.519 128.432C152.239 129.176 152.599 130.196 152.599 131.492ZM147.163 131.924C147.163 130.724 146.215 130.124 144.319 130.124H140.539V134.012H143.707C144.835 134.012 145.687 133.856 146.263 133.544C146.863 133.208 147.163 132.668 147.163 131.924ZM147.667 139.844C147.667 139.076 147.367 138.524 146.767 138.188C146.167 137.828 145.267 137.648 144.067 137.648H140.539V142.292H144.175C145.183 142.292 146.011 142.112 146.659 141.752C147.331 141.368 147.667 140.732 147.667 139.844Z" fill="white"/>
<path d="M978.045 123.104C980.853 123.176 983.085 123.668 984.741 124.58C986.421 125.468 987.621 126.62 988.341 128.036C989.085 129.452 989.457 131 989.457 132.68C989.457 133.76 989.265 134.864 988.881 135.992C988.521 137.12 987.897 138.164 987.009 139.124C986.145 140.06 984.981 140.828 983.517 141.428C982.053 142.028 980.229 142.352 978.045 142.4V146.36H973.149V142.4C970.941 142.352 969.093 142.028 967.605 141.428C966.141 140.828 964.977 140.048 964.113 139.088C963.249 138.128 962.637 137.096 962.277 135.992C961.917 134.864 961.737 133.76 961.737 132.68C961.737 131 962.097 129.452 962.817 128.036C963.561 126.62 964.761 125.468 966.417 124.58C968.097 123.668 970.341 123.176 973.149 123.104V119.936H978.045V123.104ZM973.149 127.352C970.821 127.448 969.189 127.988 968.253 128.972C967.317 129.932 966.849 131.156 966.849 132.644C966.849 134.252 967.353 135.56 968.361 136.568C969.369 137.552 970.965 138.092 973.149 138.188V127.352ZM978.045 138.188C980.253 138.092 981.849 137.552 982.833 136.568C983.841 135.56 984.345 134.252 984.345 132.644C984.345 131.156 983.877 129.932 982.941 128.972C982.029 127.988 980.397 127.448 978.045 127.352V138.188ZM1010.8 146H1005.43V130.376H1000.5C1000.19 134.216 999.771 137.312 999.243 139.664C998.739 141.992 998.031 143.696 997.119 144.776C996.207 145.832 994.983 146.36 993.447 146.36C992.199 146.36 991.179 146.168 990.387 145.784V141.5C990.939 141.74 991.515 141.86 992.115 141.86C992.547 141.86 992.943 141.644 993.303 141.212C993.663 140.78 993.999 140 994.311 138.872C994.647 137.744 994.947 136.172 995.211 134.156C995.475 132.116 995.715 129.512 995.931 126.344H1010.8V146ZM1034.25 136.136C1034.25 139.4 1033.39 141.92 1031.66 143.696C1029.96 145.472 1027.63 146.36 1024.68 146.36C1022.85 146.36 1021.22 145.964 1019.78 145.172C1018.37 144.38 1017.25 143.228 1016.43 141.716C1015.62 140.18 1015.21 138.32 1015.21 136.136C1015.21 132.872 1016.06 130.364 1017.77 128.612C1019.47 126.86 1021.81 125.984 1024.79 125.984C1026.63 125.984 1028.27 126.38 1029.68 127.172C1031.1 127.964 1032.21 129.116 1033.03 130.628C1033.85 132.116 1034.25 133.952 1034.25 136.136ZM1020.68 136.136C1020.68 138.08 1020.99 139.556 1021.62 140.564C1022.27 141.548 1023.31 142.04 1024.75 142.04C1026.17 142.04 1027.19 141.548 1027.81 140.564C1028.46 139.556 1028.78 138.08 1028.78 136.136C1028.78 134.192 1028.46 132.74 1027.81 131.78C1027.19 130.796 1026.15 130.304 1024.71 130.304C1023.3 130.304 1022.27 130.796 1021.62 131.78C1020.99 132.74 1020.68 134.192 1020.68 136.136ZM1049.63 125.984C1051.84 125.984 1053.63 126.848 1054.99 128.576C1056.36 130.28 1057.05 132.8 1057.05 136.136C1057.05 139.472 1056.34 142.016 1054.92 143.768C1053.51 145.496 1051.69 146.36 1049.49 146.36C1048.07 146.36 1046.94 146.108 1046.1 145.604C1045.26 145.076 1044.58 144.488 1044.05 143.84H1043.76C1043.95 144.848 1044.05 145.808 1044.05 146.72V154.64H1038.69V126.344H1043.04L1043.8 128.9H1044.05C1044.58 128.108 1045.29 127.424 1046.17 126.848C1047.06 126.272 1048.21 125.984 1049.63 125.984ZM1047.9 130.268C1046.51 130.268 1045.53 130.7 1044.95 131.564C1044.4 132.428 1044.1 133.748 1044.05 135.524V136.1C1044.05 137.996 1044.33 139.46 1044.88 140.492C1045.45 141.5 1046.49 142.004 1047.97 142.004C1049.2 142.004 1050.1 141.5 1050.67 140.492C1051.27 139.46 1051.57 137.984 1051.57 136.064C1051.57 132.2 1050.35 130.268 1047.9 130.268ZM1069.57 125.984C1072.28 125.984 1074.43 126.764 1076.01 128.324C1077.6 129.86 1078.39 132.056 1078.39 134.912V137.504H1065.72C1065.76 139.016 1066.21 140.204 1067.05 141.068C1067.91 141.932 1069.1 142.364 1070.61 142.364C1071.88 142.364 1073.04 142.244 1074.07 142.004C1075.1 141.74 1076.17 141.344 1077.27 140.816V144.956C1076.31 145.436 1075.29 145.784 1074.21 146C1073.16 146.24 1071.87 146.36 1070.36 146.36C1068.39 146.36 1066.65 146 1065.14 145.28C1063.63 144.536 1062.44 143.42 1061.58 141.932C1060.71 140.444 1060.28 138.572 1060.28 136.316C1060.28 134.012 1060.66 132.104 1061.43 130.592C1062.22 129.056 1063.32 127.904 1064.71 127.136C1066.1 126.368 1067.72 125.984 1069.57 125.984ZM1069.6 129.8C1068.57 129.8 1067.71 130.136 1067.01 130.808C1066.34 131.48 1065.94 132.524 1065.82 133.94H1073.35C1073.32 132.74 1073.01 131.756 1072.41 130.988C1071.81 130.196 1070.88 129.8 1069.6 129.8ZM1088.1 126.344V133.904H1095.59V126.344H1100.95V146H1095.59V137.9H1088.1V146H1082.74V126.344H1088.1ZM1128.03 153.056H1123.21V146H1106.57V126.344H1111.94V141.968H1119.79V126.344H1125.15V142.076H1128.03V153.056ZM1136.54 134.12C1136.54 134.528 1136.52 135.032 1136.47 135.632C1136.45 136.232 1136.41 136.844 1136.36 137.468C1136.34 138.092 1136.3 138.644 1136.25 139.124C1136.21 139.604 1136.17 139.94 1136.15 140.132L1145.22 126.344H1151.66V146H1146.48V138.152C1146.48 137.504 1146.5 136.796 1146.55 136.028C1146.6 135.236 1146.65 134.504 1146.69 133.832C1146.77 133.136 1146.81 132.608 1146.84 132.248L1137.8 146H1131.36V126.344H1136.54V134.12ZM1160.26 146H1154.46L1159.75 138.224C1158.74 137.816 1157.84 137.156 1157.05 136.244C1156.28 135.308 1155.9 134.036 1155.9 132.428C1155.9 130.46 1156.64 128.96 1158.13 127.928C1159.62 126.872 1161.53 126.344 1163.86 126.344H1173V146H1167.64V138.692H1164.68L1160.26 146ZM1161.16 132.464C1161.16 133.28 1161.48 133.928 1162.13 134.408C1162.78 134.864 1163.62 135.092 1164.65 135.092H1167.64V130.124H1163.96C1163 130.124 1162.3 130.364 1161.84 130.844C1161.38 131.3 1161.16 131.84 1161.16 132.464Z" fill="white"/>
<path d="M587.148 124.472C585.06 124.472 583.464 125.252 582.36 126.812C581.256 128.372 580.704 130.508 580.704 133.22C580.704 135.956 581.208 138.08 582.216 139.592C583.248 141.08 584.892 141.824 587.148 141.824C588.204 141.824 589.248 141.704 590.28 141.464C591.336 141.224 592.476 140.888 593.7 140.456V145.028C592.572 145.484 591.456 145.82 590.352 146.036C589.248 146.252 588.012 146.36 586.644 146.36C584.004 146.36 581.82 145.82 580.092 144.74C578.388 143.636 577.128 142.1 576.312 140.132C575.496 138.14 575.088 135.824 575.088 133.184C575.088 130.592 575.556 128.3 576.492 126.308C577.428 124.316 578.784 122.756 580.56 121.628C582.36 120.5 584.556 119.936 587.148 119.936C588.42 119.936 589.692 120.104 590.964 120.44C592.26 120.752 593.496 121.184 594.672 121.736L592.908 126.164C591.948 125.708 590.976 125.312 589.992 124.976C589.032 124.64 588.084 124.472 587.148 124.472ZM631.49 146H599.162V120.296H604.598V141.464H612.59V120.296H618.062V141.464H626.054V120.296H631.49V146ZM653.706 146L651.834 139.88H642.474L640.602 146H634.734L643.806 120.188H650.466L659.574 146H653.706ZM648.666 129.332C648.546 128.924 648.39 128.408 648.198 127.784C648.006 127.16 647.814 126.524 647.622 125.876C647.43 125.228 647.274 124.664 647.154 124.184C647.034 124.664 646.866 125.264 646.65 125.984C646.458 126.68 646.266 127.352 646.074 128C645.906 128.624 645.774 129.068 645.678 129.332L643.842 135.308H650.538L648.666 129.332Z" fill="white"/>
<path d="M377.24 146V120.296H393.476V124.796H382.676V130.16H384.836C387.26 130.16 389.24 130.496 390.776 131.168C392.336 131.84 393.488 132.764 394.232 133.94C394.976 135.116 395.348 136.46 395.348 137.972C395.348 140.516 394.496 142.496 392.792 143.912C391.112 145.304 388.424 146 384.728 146H377.24ZM384.512 141.536C386.168 141.536 387.464 141.272 388.4 140.744C389.36 140.216 389.84 139.292 389.84 137.972C389.84 136.604 389.324 135.704 388.292 135.272C387.26 134.84 385.856 134.624 384.08 134.624H382.676V141.536H384.512ZM404.949 134.12C404.949 134.528 404.925 135.032 404.877 135.632C404.853 136.232 404.817 136.844 404.769 137.468C404.745 138.092 404.709 138.644 404.661 139.124C404.613 139.604 404.577 139.94 404.553 140.132L413.625 126.344H420.069V146H414.885V138.152C414.885 137.504 414.909 136.796 414.957 136.028C415.005 135.236 415.053 134.504 415.101 133.832C415.173 133.136 415.221 132.608 415.245 132.248L406.209 146H399.765V126.344H404.949V134.12ZM454.943 126.344V146H425.675V126.344H431.039V141.968H437.627V126.344H442.991V141.968H449.579V126.344H454.943ZM473.438 126.344H479.342L471.566 135.776L480.026 146H473.942L465.914 136.028V146H460.55V126.344H465.914V135.884L473.438 126.344ZM490.236 125.984C492.948 125.984 495.096 126.764 496.68 128.324C498.264 129.86 499.056 132.056 499.056 134.912V137.504H486.384C486.432 139.016 486.876 140.204 487.716 141.068C488.58 141.932 489.768 142.364 491.28 142.364C492.552 142.364 493.704 142.244 494.736 142.004C495.768 141.74 496.836 141.344 497.94 140.816V144.956C496.98 145.436 495.96 145.784 494.88 146C493.824 146.24 492.54 146.36 491.028 146.36C489.06 146.36 487.32 146 485.808 145.28C484.296 144.536 483.108 143.42 482.244 141.932C481.38 140.444 480.948 138.572 480.948 136.316C480.948 134.012 481.332 132.104 482.1 130.592C482.892 129.056 483.984 127.904 485.376 127.136C486.768 126.368 488.388 125.984 490.236 125.984ZM490.272 129.8C489.24 129.8 488.376 130.136 487.68 130.808C487.008 131.48 486.612 132.524 486.492 133.94H494.016C493.992 132.74 493.68 131.756 493.08 130.988C492.48 130.196 491.544 129.8 490.272 129.8ZM516.294 126.344H522.198L514.422 135.776L522.882 146H516.798L508.77 136.028V146H503.406V126.344H508.77V135.884L516.294 126.344Z" fill="white"/>
</svg>
